# xmcd
#
# Track frame offsets: 
#        150
#        16513
#        49059
#        65952
#        85049
#        101081
#        120698
#        143982
#        175971
#        205353
#        214602
#        237320
#
# Disc length: 3408 seconds
#
# Revision: 1
# Processed by: cddbd v1.5.1PL0 Copyright (c) Steve Scherf et al.
# Submitted via: ExactAudioCopy v0.95a5
#
DISCID=aa0d4e0c
DTITLE=暢響 - 暢響
DYEAR=1996
DGENRE=New Age
TTITLE0=流情 - 廬春利 大提琴演奏家
TTITLE1=酒歌 - 段志偉 低音號演奏家
TTITLE2=雲之暢想 - 蔡介誠 排笛演奏家
TTITLE3=春天的歌 - 歐光勤 二胡演奏家
TTITLE4=漫舞 - 徐景溢 古典吉他演奏家
TTITLE5=春夢 - 郭進財 雙簧演奏家
TTITLE6=懷鄉 - 黃貞華 豎笛演奏家
TTITLE7=牧歌 - 丁魯峰 馬頭琴演奏家
TTITLE8=霞思聲動流雲 - 蘇凡凌 作曲家
TTITLE9=天聲 - 張儷瓊 箜篌演奏家
TTITLE10=隱山之音 - 范李彤 古琴演奏家
TTITLE11=情唱 - 陳建華 聲樂家
EXTD=YEAR: 1996
EXTT0=
EXTT1=
EXTT2=
EXTT3=
EXTT4=
EXTT5=
EXTT6=
EXTT7=
EXTT8=
EXTT9=
EXTT10=
EXTT11=
PLAYORDER=
